<svg xmlns="http://www.w3.org/2000/svg" width="2532" height="3096" viewBox="0 0 2532 3096">
    <defs>
        <style>.a{fill:rgba(218,236,210,0.32);}.b{fill:#daecd2;}</style>
    </defs>
    <path class="a"
          d="M368.5,746a369.936,369.936,0,0,1-37.677-1.926A363.841,363.841,0,0,1,162.468,682.3,373.461,373.461,0,0,1,7.487,448.172C5.025,436,3.147,423.537,1.9,411.137.64,398.554,0,385.723,0,373s.64-25.555,1.9-38.137c1.244-12.4,3.123-24.86,5.584-37.035A373.284,373.284,0,0,1,162.468,63.7a367.157,367.157,0,0,1,62.6-34.39A362.719,362.719,0,0,1,330.823,1.926a369.538,369.538,0,0,1,75.354,0A363.842,363.842,0,0,1,574.532,63.7,373.459,373.459,0,0,1,729.513,297.827c2.461,12.175,4.34,24.635,5.584,37.035C736.36,347.445,737,360.276,737,373s-.64,25.555-1.9,38.137c-1.244,12.4-3.123,24.861-5.584,37.036A373.283,373.283,0,0,1,574.532,682.3a367.16,367.16,0,0,1-62.6,34.39,362.718,362.718,0,0,1-105.76,27.386A369.94,369.94,0,0,1,368.5,746Zm-.215-624.582A245.459,245.459,0,0,0,229.32,164.384,251.891,251.891,0,0,0,124.787,322.3a257.074,257.074,0,0,0,0,101.405A251.775,251.775,0,0,0,229.32,581.616a247.65,247.65,0,0,0,42.219,23.2,246.143,246.143,0,0,0,193.491,0,247.65,247.65,0,0,0,42.219-23.2A251.891,251.891,0,0,0,611.782,423.7a257.074,257.074,0,0,0,0-101.405A251.773,251.773,0,0,0,507.25,164.384a247.65,247.65,0,0,0-42.219-23.2,245.192,245.192,0,0,0-96.746-19.77Z"
          transform="translate(1426 1425)"/>
    <path class="a"
          d="M368.5,746a369.936,369.936,0,0,1-37.677-1.926A363.841,363.841,0,0,1,162.468,682.3,373.461,373.461,0,0,1,7.487,448.172C5.025,436,3.147,423.537,1.9,411.137.64,398.554,0,385.723,0,373s.64-25.555,1.9-38.137c1.244-12.4,3.123-24.86,5.584-37.035A373.284,373.284,0,0,1,162.468,63.7a367.157,367.157,0,0,1,62.6-34.39A362.719,362.719,0,0,1,330.823,1.926a369.538,369.538,0,0,1,75.354,0A363.842,363.842,0,0,1,574.532,63.7,373.459,373.459,0,0,1,729.513,297.827c2.461,12.175,4.34,24.635,5.584,37.035C736.36,347.445,737,360.276,737,373s-.64,25.555-1.9,38.137c-1.244,12.4-3.123,24.861-5.584,37.036A373.283,373.283,0,0,1,574.532,682.3a367.16,367.16,0,0,1-62.6,34.39,362.718,362.718,0,0,1-105.76,27.386A369.94,369.94,0,0,1,368.5,746Zm-.215-624.582A245.459,245.459,0,0,0,229.32,164.384,251.891,251.891,0,0,0,124.787,322.3a257.074,257.074,0,0,0,0,101.405A251.775,251.775,0,0,0,229.32,581.616a247.65,247.65,0,0,0,42.219,23.2,246.143,246.143,0,0,0,193.491,0,247.65,247.65,0,0,0,42.219-23.2A251.891,251.891,0,0,0,611.782,423.7a257.074,257.074,0,0,0,0-101.405A251.773,251.773,0,0,0,507.25,164.384a247.65,247.65,0,0,0-42.219-23.2,245.192,245.192,0,0,0-96.746-19.77Z"
          transform="translate(1795 0)"/>
    <path class="b"
          d="M368.5,746a369.936,369.936,0,0,1-37.677-1.926A363.841,363.841,0,0,1,162.468,682.3,373.461,373.461,0,0,1,7.487,448.172C5.025,436,3.147,423.537,1.9,411.137.64,398.554,0,385.723,0,373s.64-25.555,1.9-38.137c1.244-12.4,3.123-24.86,5.584-37.035A373.284,373.284,0,0,1,162.468,63.7a367.157,367.157,0,0,1,62.6-34.39A362.719,362.719,0,0,1,330.823,1.926a369.538,369.538,0,0,1,75.354,0A363.842,363.842,0,0,1,574.532,63.7,373.459,373.459,0,0,1,729.513,297.827c2.461,12.175,4.34,24.635,5.584,37.035C736.36,347.445,737,360.276,737,373s-.64,25.555-1.9,38.137c-1.244,12.4-3.123,24.861-5.584,37.036A373.283,373.283,0,0,1,574.532,682.3a367.16,367.16,0,0,1-62.6,34.39,362.718,362.718,0,0,1-105.76,27.386A369.94,369.94,0,0,1,368.5,746Zm-.215-624.582A245.459,245.459,0,0,0,229.32,164.384,251.891,251.891,0,0,0,124.787,322.3a257.074,257.074,0,0,0,0,101.405A251.775,251.775,0,0,0,229.32,581.616a247.65,247.65,0,0,0,42.219,23.2,246.143,246.143,0,0,0,193.491,0,247.65,247.65,0,0,0,42.219-23.2A251.891,251.891,0,0,0,611.782,423.7a257.074,257.074,0,0,0,0-101.405A251.773,251.773,0,0,0,507.25,164.384a247.65,247.65,0,0,0-42.219-23.2,245.192,245.192,0,0,0-96.746-19.77Z"
          transform="translate(0 2350)"/>
</svg>