<svg width="512" height="512" viewBox="0 0 512 512" fill="none" xmlns="http://www.w3.org/2000/svg">
    <path d="M285 248.839C275.795 252.798 265.656 255 255 255C213.026 255 179 220.974 179 179C179 137.026 213.026 103 255 103C265.656 103 275.795 105.202 285 109.161C257.947 120.798 239 147.682 239 179C239 210.318 257.947 237.202 285 248.839ZM80 256C80 135.824 169.826 36.628 286 21.89C276.176 20.643 266.163 20 256 20C125.661 20 20 125.661 20 256C20 386.339 125.661 492 256 492C266.163 492 276.176 491.357 286 490.11C169.826 475.372 80 376.176 80 256Z"
          fill="#CEE1F2"/>
    <path d="M256 512C187.62 512 123.333 485.371 74.98 437.02C26.629 388.667 0 324.38 0 256C0 187.62 26.629 123.333 74.98 74.98C123.333 26.629 187.62 0 256 0C324.38 0 388.667 26.629 437.02 74.98C485.371 123.333 512 187.62 512 256C512 324.38 485.371 388.667 437.02 437.02C388.667 485.371 324.38 512 256 512V512ZM256 40C136.897 40 40 136.897 40 256C40 375.103 136.897 472 256 472C375.103 472 472 375.103 472 256C472 136.897 375.103 40 256 40ZM255 275C202.065 275 159 231.935 159 179C159 126.065 202.065 83 255 83C307.935 83 351 126.065 351 179C351 231.935 307.935 275 255 275ZM255 123C224.121 123 199 148.122 199 179C199 209.878 224.121 235 255 235C285.879 235 311 209.878 311 179C311 148.122 285.879 123 255 123Z"
          fill="#3C96B3"/>
    <path d="M369.051 396C363.262 396 357.522 393.5 353.567 388.673C332.915 363.46 302.407 349 269.865 349H246.135C213.593 349 183.085 363.46 162.434 388.673C155.435 397.217 142.833 398.472 134.288 391.472C125.742 384.473 124.489 371.872 131.488 363.326C159.769 328.801 201.556 309 246.135 309H269.865C314.444 309 356.231 328.801 384.511 363.327C391.51 371.872 390.257 384.473 381.711 391.473C377.995 394.517 373.509 396 369.051 396V396Z"
          fill="#FE686A"/>
</svg>
