<svg width="65" height="59" viewBox="0 0 65 59" fill="none" xmlns="http://www.w3.org/2000/svg">
    <path d="M60.5503 43.6242L53.8853 49.5208L55.4582 57.8476L47.2202 53.9158L38.9822 57.8476L39.5916 54.6188L40.5552 49.5208L33.8901 43.6242L38.6064 43.002H38.6077L43.1006 42.4085L47.2202 34.833L51.3398 42.4085L60.5503 43.6242Z"
          fill="#6FE3FF"/>
    <path d="M40.5552 49.5207L39.5916 54.6187H2.53909V48.6726C2.53513 48.2258 2.58753 47.78 2.69524 47.344C2.71555 47.2656 2.73713 47.1872 2.75999 47.11C3.36682 45.1073 5.09465 43.5435 7.2719 42.9028L16.8645 40.0796C18.6511 40.9565 20.6503 41.4157 22.6815 41.4157C24.7126 41.4157 26.7118 40.9565 28.4985 40.0796L38.0898 42.9028L38.6065 43.0019L33.8902 43.6242L40.5552 49.5207Z"
          fill="#E48E66"/>
    <path d="M16.8784 35.3008C15.2918 34.5189 13.917 33.426 12.8539 32.1014C11.7909 30.7769 11.0662 29.254 10.7326 27.6435L10.0573 25.5336V25.5163C9.6152 25.4453 9.19389 25.2927 8.81937 25.0681C8.44486 24.8434 8.12509 24.5514 7.87986 24.2101C7.63462 23.8688 7.46912 23.4855 7.39359 23.0838C7.31806 22.6821 7.33411 22.2707 7.44075 21.8749C7.56267 21.4168 7.84072 21.0054 8.23531 20.6992C8.62989 20.3929 9.12087 20.2075 9.63831 20.1694V20.2385C9.90611 20.384 10.2123 20.4609 10.5244 20.4609C10.9749 20.4613 11.4082 20.3037 11.7339 20.0212C12.0596 19.7387 12.2525 19.353 12.2726 18.9445L12.4884 14.6439C14.0281 14.6907 15.5694 14.6549 17.1044 14.5367V14.5379C24.582 20.5854 35.7297 20.1959 35.7297 20.1959V20.1705C36.246 20.2093 36.7357 20.3949 37.1291 20.7009C37.5225 21.0069 37.7996 21.4177 37.9209 21.8749C38.044 22.3316 38.0462 22.8084 37.9272 23.266C37.8083 23.7237 37.5716 24.1493 37.2366 24.508C36.7422 25.0388 36.0585 25.3955 35.3044 25.5163V25.5336L34.629 27.6435C34.2748 29.3526 33.4805 30.9615 32.311 32.3391C31.1415 33.7166 29.6299 34.8238 27.8995 35.5703C26.169 36.3168 24.2686 36.6815 22.3534 36.6347C20.4381 36.5878 18.5621 36.1308 16.8784 35.3008Z"
          fill="#F7CAA5"/>
    <path d="M35.7297 20.1705V20.1958C35.7297 20.1958 24.582 20.5853 17.1044 14.5378V14.5367C19.4715 14.3781 21.8173 14.0216 24.1122 13.4719C24.1122 13.4719 27.7901 17.7679 35.7297 18.2322V20.1705Z"
          fill="#494F4F"/>
    <path d="M9.63831 20.1695V14.1462C9.63831 12.5911 9.97574 11.0513 10.6314 9.61463C11.287 8.17796 12.2479 6.87256 13.4593 5.77298C14.6707 4.67339 16.1089 3.80116 17.6916 3.20607C19.2744 2.61098 20.9708 2.30469 22.684 2.30469C24.3972 2.30469 26.0936 2.61098 27.6764 3.20607C29.2591 3.80116 30.6973 4.67339 31.9087 5.77298C33.1201 6.87256 34.081 8.17796 34.7366 9.61463C35.3922 11.0513 35.7297 12.5911 35.7297 14.1462V18.2324C27.79 17.768 24.1122 13.4721 24.1122 13.4721C21.8173 14.0218 19.4714 14.3782 17.1044 14.5368C15.5694 14.655 14.0281 14.6908 12.4884 14.644L12.2726 18.9445C12.2525 19.353 12.0595 19.7388 11.7339 20.0213C11.4082 20.3038 10.9749 20.4613 10.5244 20.461C10.2123 20.4609 9.90611 20.3841 9.63831 20.2386V20.1695Z"
          fill="#5F6768"/>
    <path d="M28.4832 40.0752L28.4985 40.0798C26.7118 40.9567 24.7126 41.4159 22.6815 41.4159C20.6503 41.4159 18.6511 40.9567 16.8645 40.0798L16.8784 40.0752V35.301C18.6595 36.1789 20.654 36.6388 22.6807 36.639C24.7073 36.6392 26.702 36.1797 28.4832 35.3022V40.0752Z"
          fill="#EDB288"/>
</svg>
