<svg id="Layer_1" enable-background="new 0 0 512 512" height="512" viewBox="0 0 512 512" width="512"
     xmlns="http://www.w3.org/2000/svg">
    <g>
        <path d="m285 248.839c-9.205 3.959-19.344 6.161-30 6.161-41.974 0-76-34.026-76-76s34.026-76 76-76c10.656 0 20.795 2.202 30 6.161-27.053 11.637-46 38.521-46 69.839s18.947 58.202 46 69.839zm-205 7.161c0-120.176 89.826-219.372 206-234.11-9.824-1.247-19.837-1.89-30-1.89-130.339 0-236 105.661-236 236s105.661 236 236 236c10.163 0 20.176-.643 30-1.89-116.174-14.738-206-113.934-206-234.11z"
              fill="#cee1f2"/>
        <path d="m256 512c-68.38 0-132.667-26.629-181.02-74.98-48.351-48.353-74.98-112.64-74.98-181.02s26.629-132.667 74.98-181.02c48.353-48.351 112.64-74.98 181.02-74.98s132.667 26.629 181.02 74.98c48.351 48.353 74.98 112.64 74.98 181.02s-26.629 132.667-74.98 181.02c-48.353 48.351-112.64 74.98-181.02 74.98zm0-472c-119.103 0-216 96.897-216 216s96.897 216 216 216 216-96.897 216-216-96.897-216-216-216zm-1 235c-52.935 0-96-43.065-96-96s43.065-96 96-96 96 43.065 96 96-43.065 96-96 96zm0-152c-30.879 0-56 25.122-56 56s25.121 56 56 56 56-25.122 56-56-25.121-56-56-56z"
              fill="#0023c4"/>
        <path d="m369.051 396c-5.789 0-11.529-2.5-15.484-7.327-20.652-25.213-51.16-39.673-83.702-39.673h-23.73c-32.542 0-63.05 14.46-83.701 39.673-6.999 8.544-19.601 9.799-28.146 2.799-8.546-6.999-9.799-19.6-2.8-28.146 28.281-34.525 70.068-54.326 114.647-54.326h23.73c44.579 0 86.366 19.801 114.646 54.327 6.999 8.545 5.746 21.146-2.8 28.146-3.716 3.044-8.202 4.527-12.66 4.527z"
              fill="#ff5cf3"/>
    </g>
</svg>